<svg xmlns="http://www.w3.org/2000/svg" viewBox="0 0 612.24 225.85"><defs><style>.cls-1{fill:#f7f5f7;}</style></defs><title>luis-versao-branca-sem-fundo</title><g id="Layer_2" data-name="Layer 2"><g id="Layer_1-2" data-name="Layer 1"><rect class="cls-1" x="128.34" y="0.55" width="302.06" height="26.43"/><path class="cls-1" d="M128.34,150.25v11.42A64.17,64.17,0,1,1,0,161.67v-142L86.38.55v149.7Z"/><path class="cls-1" d="M311.77,48.23v96.62c0,1.81,0,3.62-.18,5.4a81,81,0,0,1-161.62,0c-.12-1.78-.18-3.59-.18-5.4V121.17l-21.45,4.74V48.23h86.4v86a16,16,0,1,0,32.08,0v-86Z"/><path class="cls-1" d="M430.41,48.23v130a47.67,47.67,0,0,1-95.34,0v-130Z"/><path class="cls-1" d="M612.24,150.25v.31a75.29,75.29,0,1,1-150.57,0v-.31c0-.29,0-.58,0-.87L500,140.89a75.8,75.8,0,0,1-28.26-27.95,76.7,76.7,0,0,1-4.82-10A75.3,75.3,0,1,1,612.09,70.78L565.84,81a75.41,75.41,0,0,1,36.32,31.91c.91,1.55,1.75,3.13,2.54,4.75A75.11,75.11,0,0,1,612.24,150.25Z"/></g></g></svg>